<?xml version="1.0"?>
<svg xmlns="http://www.w3.org/2000/svg" xmlns:xlink="http://www.w3.org/1999/xlink" xmlns:svgjs="http://svgjs.com/svgjs" version="1.1" width="512" height="512" x="0" y="0" viewBox="0 0 64 64" style="enable-background:new 0 0 512 512" xml:space="preserve" class=""><g><path xmlns="http://www.w3.org/2000/svg" d="m49.88 14.06c-3.334-6.617-10.224-11.055-17.88-11.055-10.006 0-18.295 7.394-19.75 17h-.25c-6.617 0-12 5.383-12 12s5.383 12 12 12h5.008v8.99c0 1.654 1.346 3 3 3h6.773l-.6 3h-1.181c-.553 0-1 .447-1 1s.447 1 1 1h14c.553 0 1-.447 1-1s-.447-1-1-1h-1.182l-.6-3h6.773c1.654 0 3-1.346 3-3v-8.99h2.009c8.271 0 15-6.729 15-15 0-7.921-6.279-14.484-14.12-14.945zm-4.888 35.935h-25.984v-14.988c0-.552.448-1 1-1h23.984c.552 0 1 .448 1 1zm-9.213 9h-7.559l.6-3h6.359zm8.213-5h-11.962-12.022c-.552 0-1-.448-1-1v-1h13.012c-.552 0-.994.447-.994 1s.452 1 1.005 1c.552 0 1-.447 1-1s-.448-1-1-1h12.962v1c-.001.552-.449 1-1.001 1zm5.008-11.99h-2.008v-6.998c0-1.654-1.346-3-3-3h-23.984c-1.654 0-3 1.346-3 3v6.998h-5.008c-5.514 0-10-4.486-10-10s4.486-10 10-10h.051c-.017.333-.051.662-.051 1 0 .553.447 1 1 1s1-.447 1-1c0-9.925 8.075-18 18-18 8.427 0 15.827 5.969 17.597 14.193.267 1.24.403 2.522.403 3.807 0 .553.447 1 1 1s1-.447 1-1c0-1.427-.15-2.85-.448-4.228-.195-.905-.468-1.778-.78-2.631 6.317.875 11.228 6.338 11.228 12.859 0 7.168-5.832 13-13 13z" fill="#d14828" data-original="#000000" style=""/><path xmlns="http://www.w3.org/2000/svg" d="m36.709 17.294c-.092-.093-.203-.166-.326-.217-.244-.102-.52-.102-.764 0-.123.051-.234.124-.326.217l-1.999 1.999c-.391.391-.391 1.023 0 1.414.195.195.451.293.707.293s.512-.098.707-.293l.293-.293v7.588c0 .553.447 1 1 1s1-.447 1-1v-7.588l.293.293c.195.195.451.293.707.293s.512-.098.707-.293c.391-.391.391-1.023 0-1.414z" fill="#d14828" data-original="#000000" style=""/><path xmlns="http://www.w3.org/2000/svg" d="m29.291 25.295-.293.293v-7.588c0-.553-.447-1-1-1s-1 .447-1 1v7.588l-.293-.293c-.391-.391-1.023-.391-1.414 0s-.391 1.023 0 1.414l1.999 1.999c.092.093.203.166.326.217.122.051.252.077.382.077s.26-.026.382-.077c.123-.051.234-.124.326-.217l1.999-1.999c.391-.391.391-1.023 0-1.414s-1.023-.391-1.414 0z" fill="#d14828" data-original="#000000" style=""/></g></svg>
