<?xml version="1.0"?>
<svg xmlns="http://www.w3.org/2000/svg" xmlns:xlink="http://www.w3.org/1999/xlink" xmlns:svgjs="http://svgjs.com/svgjs" version="1.1" width="512" height="512" x="0" y="0" viewBox="0 0 496 496" style="enable-background:new 0 0 512 512" xml:space="preserve" class=""><g>
<path xmlns="http://www.w3.org/2000/svg" style="" d="M256,478.3c0,4.8-3.2,8.8-8,8.8l0,0c-4.8,0-8-4-8-8.8V341.5c0-4.8,3.2-8.8,8-8.8l0,0c4.8,0,8,4,8,8.8  V478.3z" fill="#9b9b9b" data-original="#9b9b9b"/>
<path xmlns="http://www.w3.org/2000/svg" style="" d="M496,239.9c0,4.8-3.2,8-8,8H352c-4.8,0-8-3.2-8-8l0,0c0-4.8,3.2-8,8-8h136  C492.8,231.9,496,235.1,496,239.9L496,239.9z" fill="#d6d6d6" data-original="#d6d6d6"/>
<path xmlns="http://www.w3.org/2000/svg" style="" d="M152,239.9c0,4.8-3.2,8-8,8H8c-4.8,0-8-3.2-8-8l0,0c0-4.8,3.2-8,8-8h136  C148.8,231.9,152,235.1,152,239.9L152,239.9z" fill="#515151" data-original="#515151" class=""/>
<path xmlns="http://www.w3.org/2000/svg" style="" d="M326.4,172.7c-3.2,3.2-8.8,3.2-12,0l0,0c-3.2-3.2-3.2-8.8,0-12l96.8-96.8c3.2-3.2,8.8-3.2,12,0l0,0  c3.2,3.2,3.2,8.8,0,12L326.4,172.7z" fill="#ededed" data-original="#ededed"/>
<path xmlns="http://www.w3.org/2000/svg" style="" d="M84.8,414.3c-3.2,3.2-8.8,3.2-12,0l0,0c-3.2-3.2-3.2-8.8,0-12l96.8-96.8c3.2-3.2,8.8-3.2,12,0l0,0  c3.2,3.2,3.2,8.8,0,12L84.8,414.3z" fill="#7a7a7a" data-original="#7a7a7a"/>
<path xmlns="http://www.w3.org/2000/svg" style="" d="M314.4,317.5c-3.2-3.2-3.2-8.8,0-12l0,0c3.2-3.2,8.8-3.2,12,0l96.8,96.8c3.2,3.2,3.2,8.8,0,12l0,0  c-3.2,3.2-8.8,3.2-12,0L314.4,317.5z" fill="#bfbfbf" data-original="#bfbfbf"/>
<path xmlns="http://www.w3.org/2000/svg" style="" d="M72.8,75.1c-3.2-3.2-3.2-8,0-11.2l0,0c3.2-3.2,8.8-3.2,12,0l96.8,96.8c3.2,3.2,3.2,8.8,0,12l0,0  c-3.2,3.2-8.8,3.2-12,0L72.8,75.1z" fill="#2b2b2b" data-original="#2b2b2b" class=""/>
<path xmlns="http://www.w3.org/2000/svg" style="" d="M295.2,147.1c-2.4,4.8-7.2,6.4-11.2,4.8l0,0c-4-1.6-6.4-6.4-4.8-11.2l52-126.4  c1.6-4,6.4-6.4,11.2-4.8l0,0c4,1.6,6.4,6.4,4.8,11.2L295.2,147.1z" fill="#f4f4f4" data-original="#f4f4f4"/>
<path xmlns="http://www.w3.org/2000/svg" style="" d="M164.8,463.9c-1.6,4-6.4,6.4-11.2,4.8l0,0c-4-1.6-6.4-6.4-4.8-11.2l52-126.4c1.6-4,6.4-6.4,11.2-4.8  l0,0c4,1.6,6.4,6.4,4.8,11.2L164.8,463.9z" fill="#898989" data-original="#898989" class=""/>
<path xmlns="http://www.w3.org/2000/svg" style="" d="M340,285.5c-4-1.6-6.4-6.4-4.8-11.2l0,0c1.6-4,6.4-6.4,11.2-4.8l126.4,52c4,1.6,6.4,6.4,4.8,11.2l0,0  c-1.6,4-6.4,6.4-11.2,4.8L340,285.5z" fill="#cccccc" data-original="#cccccc"/>
<path xmlns="http://www.w3.org/2000/svg" style="" d="M23.2,155.1c-4-1.6-6.4-6.4-4.8-11.2l0,0c1.6-4,6.4-6.4,11.2-4.8L156,191.9c4,1.6,6.4,6.4,4.8,11.2  l0,0c-1.6,4-6.4,6.4-11.2,4.8L23.2,155.1z" fill="#3f3f3f" data-original="#3f3f3f" class=""/>
<path xmlns="http://www.w3.org/2000/svg" style="" d="M345.6,207.1c-4,1.6-8.8,0-11.2-4.8l0,0c-1.6-4,0-9.6,4.8-11.2l126.4-52.8c4-1.6,9.6,0,11.2,4.8l0,0  c1.6,4,0,9.6-4.8,11.2L345.6,207.1z" fill="#e2e2e2" data-original="#e2e2e2"/>
<path xmlns="http://www.w3.org/2000/svg" style="" d="M30.4,339.1c-4,1.6-9.6,0-11.2-4.8l0,0c-1.6-4,0-9.6,4.8-11.2l126.4-52.8c4-1.6,8.8,0,11.2,4.8l0,0  c1.6,4,0,9.6-4.8,11.2L30.4,339.1z" fill="#6d6d6d" data-original="#6d6d6d" class=""/>
<path xmlns="http://www.w3.org/2000/svg" style="" d="M280,336.7c-1.6-4,0-8.8,4.8-11.2l0,0c4-1.6,9.6,0,11.2,4.8l52.8,126.4c1.6,4,0,9.6-4.8,11.2l0,0  c-4,1.6-9.6,0-11.2-4.8L280,336.7z" fill="#adadad" data-original="#adadad"/>
<path xmlns="http://www.w3.org/2000/svg" style="" d="M148,20.7c-1.6-4,0-9.6,4.8-11.2l0,0c4-1.6,9.6,0,11.2,4.8l52,126.4c1.6,4,0,9.6-4.8,11.2l0,0  c-4,1.6-9.6,0-11.2-4.8L148,20.7z" fill="#0c0c0c" data-original="#0c0c0c"/>
<g xmlns="http://www.w3.org/2000/svg">
</g>
<g xmlns="http://www.w3.org/2000/svg">
</g>
<g xmlns="http://www.w3.org/2000/svg">
</g>
<g xmlns="http://www.w3.org/2000/svg">
</g>
<g xmlns="http://www.w3.org/2000/svg">
</g>
<g xmlns="http://www.w3.org/2000/svg">
</g>
<g xmlns="http://www.w3.org/2000/svg">
</g>
<g xmlns="http://www.w3.org/2000/svg">
</g>
<g xmlns="http://www.w3.org/2000/svg">
</g>
<g xmlns="http://www.w3.org/2000/svg">
</g>
<g xmlns="http://www.w3.org/2000/svg">
</g>
<g xmlns="http://www.w3.org/2000/svg">
</g>
<g xmlns="http://www.w3.org/2000/svg">
</g>
<g xmlns="http://www.w3.org/2000/svg">
</g>
<g xmlns="http://www.w3.org/2000/svg">
</g>
</g></svg>
