<?xml version="1.0" encoding="iso-8859-1"?>
<!-- Generator: Adobe Illustrator 19.0.0, SVG Export Plug-In . SVG Version: 6.00 Build 0)  -->
<svg version="1.1" id="Layer_1" xmlns="http://www.w3.org/2000/svg" xmlns:xlink="http://www.w3.org/1999/xlink" x="0px" y="0px"
	 viewBox="0 0 507.162 507.162" style="enable-background:new 0 0 507.162 507.162;" xml:space="preserve">
<g>
	<g>
		<path d="M217.477,308.876l-0.564-5.968c-0.688-7.18-6.88-12.804-14.284-12.804l-8.892,0.112
			c-3.324-10.736-8.752-20.88-15.864-29.644l5.156-7.416c4.104-5.908,2.936-14.424-2.6-19l-4.612-3.804
			c-5.372-4.428-14.324-3.94-19.172,1.036l-6.368,6.54c-10.012-5.308-20.752-8.584-31.996-9.772l-1.612-9.024
			c-1.272-7.068-7.98-12.264-15.292-11.592l-5.94,0.564c-7.164,0.684-12.916,7.084-12.82,14.28l0.124,9.168
			c-10.82,3.296-20.74,8.556-29.56,15.66l-7.496-5.22c-2.32-1.616-5.092-2.476-8.012-2.476c-4.324,0-8.332,1.856-10.988,5.084
			l-3.804,4.612c-4.592,5.556-4.128,14.144,1.024,19.152l6.464,6.296c-5.32,9.944-8.732,20.932-9.968,32.116l-8.752,1.572
			c-7.08,1.268-12.276,8.124-11.588,15.276l0.568,5.972c0.692,7.176,6.876,12.8,14.272,12.8l8.748-0.116
			c3.264,10.852,8.68,21.104,15.804,29.972l-4.94,7.084c-4.112,5.908-2.936,14.432,2.612,19l4.616,3.812
			c5.348,4.428,14.308,3.932,19.152-1.036l5.94-6.104c10.18,5.472,21.096,8.836,32.548,10.036l1.492,8.32
			c1.18,6.648,7.196,11.664,13.992,11.664c0.424,0,0.856-0.024,1.28-0.064l5.96-0.568c7.148-0.68,12.9-7.084,12.82-14.284
			l-0.112-8.448c11.012-3.344,21.092-8.724,30.048-16.024l6.996,4.872c2.324,1.616,5.092,2.468,8.012,2.468
			c4.328,0,8.34-1.852,11-5.08l3.812-4.62c4.584-5.548,4.108-14.144-1.052-19.152l-6.18-6.012
			c5.316-10.048,8.684-21.14,9.848-32.424l8.588-1.544C212.969,322.884,218.161,316.028,217.477,308.876z M112.777,358.292
			c-23.024,2.196-43.48-14.692-45.676-37.712c-2.196-23.032,14.692-43.488,37.716-45.692c23.024-2.2,43.472,14.688,45.676,37.72
			C152.697,335.64,135.809,356.092,112.777,358.292z"/>
	</g>
</g>
<g>
	<g>
		<path d="M507.085,221.788l-0.8-8.288c-0.856-9.044-8.968-16.412-18.292-16.412l-13.532,0.176
			c-4.668-15.556-12.516-30.22-22.876-42.736l7.844-11.272c5.26-7.572,3.768-18.496-3.34-24.348l-6.424-5.308
			c-3.164-2.616-7.252-4.056-11.508-4.056c-4.952,0-9.716,1.964-13.048,5.388l-9.672,9.936
			c-14.388-7.792-29.884-12.524-46.132-14.084l-2.456-13.716c-1.62-9.048-10.288-15.74-19.584-14.856L338.977,83
			c-9.172,0.884-16.532,9.084-16.42,18.3l0.184,13.936c-15.652,4.604-29.96,12.172-42.616,22.552l-11.376-7.924
			c-2.972-2.068-6.516-3.156-10.252-3.156c-5.476,0-10.752,2.428-14.1,6.5l-5.308,6.42c-5.864,7.12-5.268,18.132,1.328,24.552
			l9.824,9.584c-7.8,14.26-12.736,30.14-14.364,46.288l-13.328,2.392c-9.072,1.628-15.736,10.412-14.848,19.584l0.784,8.296
			c0.868,9.056,8.972,16.42,18.296,16.42h0.004l13.328-0.18c4.552,15.664,12.364,30.492,22.768,43.188l-7.524,10.8
			c-5.268,7.568-3.768,18.492,3.34,24.36l6.42,5.308c3.172,2.616,7.256,4.056,11.504,4.056c4.952,0,9.708-1.964,13.052-5.384
			l9.08-9.336c14.448,7.916,30.536,12.876,46.872,14.456l2.292,12.732c1.536,8.52,9.248,14.94,17.952,14.94
			c0.544,0,1.084-0.024,1.632-0.076l8.296-0.8c9.172-0.872,16.54-9.084,16.416-18.3l-0.176-12.92
			c15.924-4.676,30.464-12.428,43.308-23.08l10.692,7.276c2.972,2.068,6.516,3,10.252,3h0.008c5.468,0,10.74-2.268,14.092-6.344
			l5.296-6.332c5.884-7.096,5.284-18.08-1.32-24.52l-9.432-9.164c7.8-14.424,12.66-30.448,14.16-46.708l13.124-2.344
			C501.289,239.744,507.961,230.96,507.085,221.788z M364.321,304.668c-40.092,3.832-75.704-25.564-79.524-65.66
			c-3.812-40.092,25.576-75.7,65.664-79.532c40.08-3.828,75.684,25.572,79.524,65.664
			C433.813,265.228,404.413,300.84,364.321,304.668z"/>
	</g>
</g>
<g>
</g>
<g>
</g>
<g>
</g>
<g>
</g>
<g>
</g>
<g>
</g>
<g>
</g>
<g>
</g>
<g>
</g>
<g>
</g>
<g>
</g>
<g>
</g>
<g>
</g>
<g>
</g>
<g>
</g>
</svg>
