<?xml version="1.0" encoding="iso-8859-1"?>
<!-- Generator: Adobe Illustrator 19.0.0, SVG Export Plug-In . SVG Version: 6.00 Build 0)  -->
<svg version="1.1" id="Layer_1" xmlns="http://www.w3.org/2000/svg" xmlns:xlink="http://www.w3.org/1999/xlink" x="0px" y="0px"
	 viewBox="0 0 507.176 507.176" style="enable-background:new 0 0 507.176 507.176;" xml:space="preserve">
<g>
	<g>
		<path d="M414.056,209.84c-1.912,0-3.876,0.072-5.876,0.196c-14.884-33.908-48.032-55.668-85.252-55.668
			c-16.02,0-31.68,4.108-45.572,11.924c-14.784-33.384-48.432-55.512-85.184-55.512c-51.336,0-93.112,41.776-93.112,93.116
			c0,2.008,0.076,4.068,0.22,6.16c-2.096-0.136-4.152-0.22-6.164-0.22C41.776,209.836,0,251.612,0,302.948
			c0,50.008,40.5,91.78,90.408,93.22c0.236,0.044,0.48,0.228,0.728,0.228H416.04c0.248,0,0.488-0.184,0.72-0.228
			c49.916-1.44,90.416-43.124,90.416-93.128C507.172,251.7,465.408,209.84,414.056,209.84z"/>
	</g>
</g>
<g>
</g>
<g>
</g>
<g>
</g>
<g>
</g>
<g>
</g>
<g>
</g>
<g>
</g>
<g>
</g>
<g>
</g>
<g>
</g>
<g>
</g>
<g>
</g>
<g>
</g>
<g>
</g>
<g>
</g>
</svg>
